<svg width="21" height="16" viewBox="0 0 21 16" fill="none" xmlns="http://www.w3.org/2000/svg">
<path d="M10.0154 15.9461V13.6871L15.9134 8.0528L18.2782 10.3118L12.3802 15.9461H10.0154ZM0 10.6308V8.5046H7.78979V10.6308H0ZM19.0572 9.56768L16.6924 7.30864L17.4992 6.53791C17.7032 6.34302 17.9629 6.24557 18.2782 6.24557C18.5935 6.24557 18.8532 6.34302 19.0572 6.53791L19.864 7.30864C20.068 7.50354 20.17 7.75159 20.17 8.0528C20.17 8.354 20.068 8.60205 19.864 8.79695L19.0572 9.56768ZM0 6.37845V4.2523H12.2411V6.37845H0ZM0 2.12615V0H12.2411V2.12615H0Z" fill="#DFBD43"/>
</svg>
